# Wavefront OBJ file automatically generated by Tiled2Unity

# Vertices (Count = 225)
v -448 -64 0
v -480 -64 0
v -480 -32 0
v -448 -32 0
v -416 -64 0
v -416 -32 0
v -384 -64 0
v -384 -32 0
v -352 -64 0
v -352 -32 0
v -320 -64 0
v -320 -32 0
v -288 -64 0
v -288 -32 0
v -256 -64 0
v -256 -32 0
v -224 -64 0
v -224 -32 0
v -192 -64 0
v -192 -32 0
v -160 -64 0
v -160 -32 0
v -128 -64 0
v -128 -32 0
v -64 -64 0
v -96 -64 0
v -96 -32 0
v -64 -32 0
v -32 -64 0
v -32 -32 0
v -448 -96 0
v -480 -96 0
v -416 -96 0
v -384 -96 0
v -352 -96 0
v -320 -96 0
v -288 -96 0
v -256 -96 0
v -224 -96 0
v -192 -96 0
v -160 -96 0
v -128 -96 0
v -64 -96 0
v -96 -96 0
v -32 -96 0
v -448 -128 0
v -480 -128 0
v -416 -128 0
v -160 -128 0
v -192 -128 0
v -128 -128 0
v -64 -128 0
v -96 -128 0
v -32 -128 0
v -448 -160 0
v -480 -160 0
v -416 -160 0
v -384 -160 0
v -384 -128 0
v -352 -160 0
v -352 -128 0
v -320 -160 0
v -320 -128 0
v -256 -160 0
v -288 -160 0
v -288 -128 0
v -256 -128 0
v -224 -160 0
v -224 -128 0
v -160 -160 0
v -192 -160 0
v -128 -160 0
v -96 -160 0
v -64 -160 0
v -32 -160 0
v -448 -192 0
v -480 -192 0
v -416 -192 0
v -384 -192 0
v -352 -192 0
v -320 -192 0
v -256 -192 0
v -288 -192 0
v -224 -192 0
v -160 -192 0
v -192 -192 0
v -128 -192 0
v -96 -192 0
v -64 -192 0
v -32 -192 0
v -352 -224 0
v -384 -224 0
v -320 -224 0
v -256 -224 0
v -288 -224 0
v -224 -224 0
v -160 -224 0
v -192 -224 0
v -128 -224 0
v -448 -256 0
v -480 -256 0
v -480 -224 0
v -448 -224 0
v -416 -256 0
v -416 -224 0
v -384 -256 0
v -352 -256 0
v -320 -256 0
v -256 -256 0
v -288 -256 0
v -224 -256 0
v -160 -256 0
v -192 -256 0
v -128 -256 0
v -96 -256 0
v -96 -224 0
v -64 -256 0
v -64 -224 0
v -32 -256 0
v -32 -224 0
v -448 -288 0
v -480 -288 0
v -416 -288 0
v -384 -288 0
v -352 -288 0
v -320 -288 0
v -256 -288 0
v -288 -288 0
v -224 -288 0
v -160 -288 0
v -192 -288 0
v -128 -288 0
v -96 -288 0
v -64 -288 0
v -32 -288 0
v -448 -320 0
v -480 -320 0
v -416 -320 0
v -256 -320 0
v -288 -320 0
v -224 -320 0
v -64 -320 0
v -96 -320 0
v -32 -320 0
v -448 -352 0
v -480 -352 0
v -416 -352 0
v -384 -352 0
v -384 -320 0
v -352 -352 0
v -352 -320 0
v -320 -352 0
v -320 -320 0
v -256 -352 0
v -288 -352 0
v -224 -352 0
v -192 -352 0
v -192 -320 0
v -160 -352 0
v -160 -320 0
v -128 -352 0
v -128 -320 0
v -64 -352 0
v -96 -352 0
v -32 -352 0
v -448 -384 0
v -480 -384 0
v -416 -384 0
v -384 -384 0
v -352 -384 0
v -320 -384 0
v -256 -384 0
v -288 -384 0
v -224 -384 0
v -192 -384 0
v -160 -384 0
v -128 -384 0
v -64 -384 0
v -96 -384 0
v -32 -384 0
v -448 -416 0
v -480 -416 0
v -416 -416 0
v -352 -416 0
v -384 -416 0
v -320 -416 0
v -160 -416 0
v -192 -416 0
v -128 -416 0
v -64 -416 0
v -96 -416 0
v -32 -416 0
v -448 -448 0
v -480 -448 0
v -416 -448 0
v -352 -448 0
v -384 -448 0
v -320 -448 0
v -288 -448 0
v -288 -416 0
v -256 -448 0
v -256 -416 0
v -224 -448 0
v -224 -416 0
v -160 -448 0
v -192 -448 0
v -128 -448 0
v -96 -448 0
v -64 -448 0
v -32 -448 0
v -448 -480 0
v -480 -480 0
v -416 -480 0
v -352 -480 0
v -384 -480 0
v -320 -480 0
v -288 -480 0
v -256 -480 0
v -224 -480 0
v -160 -480 0
v -192 -480 0
v -128 -480 0
v -96 -480 0
v -64 -480 0
v -32 -480 0

# Texture cooridinates (Count = 4)
vt 0.1676348 0.7082439
vt 0.2079998 0.7082439
vt 0.2079998 0.7486089
vt 0.1676348 0.7486089

# Normal
vn 0 0 -1

# Groups (Count = 1)

g mesh_0001
f 1/1/1 2/2/1 3/3/1 4/4/1
f 5/1/1 1/2/1 4/3/1 6/4/1
f 7/1/1 5/2/1 6/3/1 8/4/1
f 9/1/1 7/2/1 8/3/1 10/4/1
f 11/1/1 9/2/1 10/3/1 12/4/1
f 13/1/1 11/2/1 12/3/1 14/4/1
f 15/1/1 13/2/1 14/3/1 16/4/1
f 17/1/1 15/2/1 16/3/1 18/4/1
f 19/1/1 17/2/1 18/3/1 20/4/1
f 21/1/1 19/2/1 20/3/1 22/4/1
f 23/1/1 21/2/1 22/3/1 24/4/1
f 25/1/1 26/2/1 27/3/1 28/4/1
f 29/1/1 25/2/1 28/3/1 30/4/1
f 31/1/1 32/2/1 2/3/1 1/4/1
f 33/1/1 31/2/1 1/3/1 5/4/1
f 34/1/1 33/2/1 5/3/1 7/4/1
f 35/1/1 34/2/1 7/3/1 9/4/1
f 36/1/1 35/2/1 9/3/1 11/4/1
f 37/1/1 36/2/1 11/3/1 13/4/1
f 38/1/1 37/2/1 13/3/1 15/4/1
f 39/1/1 38/2/1 15/3/1 17/4/1
f 40/1/1 39/2/1 17/3/1 19/4/1
f 41/1/1 40/2/1 19/3/1 21/4/1
f 42/1/1 41/2/1 21/3/1 23/4/1
f 43/1/1 44/2/1 26/3/1 25/4/1
f 45/1/1 43/2/1 25/3/1 29/4/1
f 46/1/1 47/2/1 32/3/1 31/4/1
f 48/1/1 46/2/1 31/3/1 33/4/1
f 49/1/1 50/2/1 40/3/1 41/4/1
f 51/1/1 49/2/1 41/3/1 42/4/1
f 52/1/1 53/2/1 44/3/1 43/4/1
f 54/1/1 52/2/1 43/3/1 45/4/1
f 55/1/1 56/2/1 47/3/1 46/4/1
f 57/1/1 55/2/1 46/3/1 48/4/1
f 58/1/1 57/2/1 48/3/1 59/4/1
f 60/1/1 58/2/1 59/3/1 61/4/1
f 62/1/1 60/2/1 61/3/1 63/4/1
f 64/1/1 65/2/1 66/3/1 67/4/1
f 68/1/1 64/2/1 67/3/1 69/4/1
f 70/1/1 71/2/1 50/3/1 49/4/1
f 72/1/1 70/2/1 49/3/1 51/4/1
f 73/1/1 72/2/1 51/3/1 53/4/1
f 74/1/1 73/2/1 53/3/1 52/4/1
f 75/1/1 74/2/1 52/3/1 54/4/1
f 76/1/1 77/2/1 56/3/1 55/4/1
f 78/1/1 76/2/1 55/3/1 57/4/1
f 79/1/1 78/2/1 57/3/1 58/4/1
f 80/1/1 79/2/1 58/3/1 60/4/1
f 81/1/1 80/2/1 60/3/1 62/4/1
f 82/1/1 83/2/1 65/3/1 64/4/1
f 84/1/1 82/2/1 64/3/1 68/4/1
f 85/1/1 86/2/1 71/3/1 70/4/1
f 87/1/1 85/2/1 70/3/1 72/4/1
f 88/1/1 87/2/1 72/3/1 73/4/1
f 89/1/1 88/2/1 73/3/1 74/4/1
f 90/1/1 89/2/1 74/3/1 75/4/1
f 91/1/1 92/2/1 79/3/1 80/4/1
f 93/1/1 91/2/1 80/3/1 81/4/1
f 94/1/1 95/2/1 83/3/1 82/4/1
f 96/1/1 94/2/1 82/3/1 84/4/1
f 97/1/1 98/2/1 86/3/1 85/4/1
f 99/1/1 97/2/1 85/3/1 87/4/1
f 100/1/1 101/2/1 102/3/1 103/4/1
f 104/1/1 100/2/1 103/3/1 105/4/1
f 106/1/1 104/2/1 105/3/1 92/4/1
f 107/1/1 106/2/1 92/3/1 91/4/1
f 108/1/1 107/2/1 91/3/1 93/4/1
f 109/1/1 110/2/1 95/3/1 94/4/1
f 111/1/1 109/2/1 94/3/1 96/4/1
f 112/1/1 113/2/1 98/3/1 97/4/1
f 114/1/1 112/2/1 97/3/1 99/4/1
f 115/1/1 114/2/1 99/3/1 116/4/1
f 117/1/1 115/2/1 116/3/1 118/4/1
f 119/1/1 117/2/1 118/3/1 120/4/1
f 121/1/1 122/2/1 101/3/1 100/4/1
f 123/1/1 121/2/1 100/3/1 104/4/1
f 124/1/1 123/2/1 104/3/1 106/4/1
f 125/1/1 124/2/1 106/3/1 107/4/1
f 126/1/1 125/2/1 107/3/1 108/4/1
f 127/1/1 128/2/1 110/3/1 109/4/1
f 129/1/1 127/2/1 109/3/1 111/4/1
f 130/1/1 131/2/1 113/3/1 112/4/1
f 132/1/1 130/2/1 112/3/1 114/4/1
f 133/1/1 132/2/1 114/3/1 115/4/1
f 134/1/1 133/2/1 115/3/1 117/4/1
f 135/1/1 134/2/1 117/3/1 119/4/1
f 136/1/1 137/2/1 122/3/1 121/4/1
f 138/1/1 136/2/1 121/3/1 123/4/1
f 139/1/1 140/2/1 128/3/1 127/4/1
f 141/1/1 139/2/1 127/3/1 129/4/1
f 142/1/1 143/2/1 133/3/1 134/4/1
f 144/1/1 142/2/1 134/3/1 135/4/1
f 145/1/1 146/2/1 137/3/1 136/4/1
f 147/1/1 145/2/1 136/3/1 138/4/1
f 148/1/1 147/2/1 138/3/1 149/4/1
f 150/1/1 148/2/1 149/3/1 151/4/1
f 152/1/1 150/2/1 151/3/1 153/4/1
f 154/1/1 155/2/1 140/3/1 139/4/1
f 156/1/1 154/2/1 139/3/1 141/4/1
f 157/1/1 156/2/1 141/3/1 158/4/1
f 159/1/1 157/2/1 158/3/1 160/4/1
f 161/1/1 159/2/1 160/3/1 162/4/1
f 163/1/1 164/2/1 143/3/1 142/4/1
f 165/1/1 163/2/1 142/3/1 144/4/1
f 166/1/1 167/2/1 146/3/1 145/4/1
f 168/1/1 166/2/1 145/3/1 147/4/1
f 169/1/1 168/2/1 147/3/1 148/4/1
f 170/1/1 169/2/1 148/3/1 150/4/1
f 171/1/1 170/2/1 150/3/1 152/4/1
f 172/1/1 173/2/1 155/3/1 154/4/1
f 174/1/1 172/2/1 154/3/1 156/4/1
f 175/1/1 174/2/1 156/3/1 157/4/1
f 176/1/1 175/2/1 157/3/1 159/4/1
f 177/1/1 176/2/1 159/3/1 161/4/1
f 178/1/1 179/2/1 164/3/1 163/4/1
f 180/1/1 178/2/1 163/3/1 165/4/1
f 181/1/1 182/2/1 167/3/1 166/4/1
f 183/1/1 181/2/1 166/3/1 168/4/1
f 184/1/1 185/2/1 169/3/1 170/4/1
f 186/1/1 184/2/1 170/3/1 171/4/1
f 187/1/1 188/2/1 175/3/1 176/4/1
f 189/1/1 187/2/1 176/3/1 177/4/1
f 190/1/1 191/2/1 179/3/1 178/4/1
f 192/1/1 190/2/1 178/3/1 180/4/1
f 193/1/1 194/2/1 182/3/1 181/4/1
f 195/1/1 193/2/1 181/3/1 183/4/1
f 196/1/1 197/2/1 185/3/1 184/4/1
f 198/1/1 196/2/1 184/3/1 186/4/1
f 199/1/1 198/2/1 186/3/1 200/4/1
f 201/1/1 199/2/1 200/3/1 202/4/1
f 203/1/1 201/2/1 202/3/1 204/4/1
f 205/1/1 206/2/1 188/3/1 187/4/1
f 207/1/1 205/2/1 187/3/1 189/4/1
f 208/1/1 207/2/1 189/3/1 191/4/1
f 209/1/1 208/2/1 191/3/1 190/4/1
f 210/1/1 209/2/1 190/3/1 192/4/1
f 211/1/1 212/2/1 194/3/1 193/4/1
f 213/1/1 211/2/1 193/3/1 195/4/1
f 214/1/1 215/2/1 197/3/1 196/4/1
f 216/1/1 214/2/1 196/3/1 198/4/1
f 217/1/1 216/2/1 198/3/1 199/4/1
f 218/1/1 217/2/1 199/3/1 201/4/1
f 219/1/1 218/2/1 201/3/1 203/4/1
f 220/1/1 221/2/1 206/3/1 205/4/1
f 222/1/1 220/2/1 205/3/1 207/4/1
f 223/1/1 222/2/1 207/3/1 208/4/1
f 224/1/1 223/2/1 208/3/1 209/4/1
f 225/1/1 224/2/1 209/3/1 210/4/1

