# Wavefront OBJ file automatically generated by Tiled2Unity

# Vertices (Count = 324)
v -512 -32 0
v -544 -32 0
v -544 0 0
v -512 0 0
v -480 -32 0
v -480 0 0
v -448 -32 0
v -448 0 0
v -416 -32 0
v -416 0 0
v -384 -32 0
v -384 0 0
v -352 -32 0
v -352 0 0
v -320 -32 0
v -320 0 0
v -288 -32 0
v -288 0 0
v -256 -32 0
v -256 0 0
v -224 -32 0
v -224 0 0
v -192 -32 0
v -192 0 0
v -160 -32 0
v -160 0 0
v -128 -32 0
v -128 0 0
v -96 -32 0
v -96 0 0
v -64 -32 0
v -64 0 0
v -32 -32 0
v -32 0 0
v 0 -32 0
v 0 0 0
v -512 -64 0
v -544 -64 0
v -480 -64 0
v -448 -64 0
v -416 -64 0
v -384 -64 0
v -352 -64 0
v -320 -64 0
v -288 -64 0
v -256 -64 0
v -224 -64 0
v -192 -64 0
v -160 -64 0
v -128 -64 0
v -96 -64 0
v -64 -64 0
v -32 -64 0
v 0 -64 0
v -512 -96 0
v -544 -96 0
v -480 -96 0
v -448 -96 0
v -416 -96 0
v -384 -96 0
v -352 -96 0
v -320 -96 0
v -288 -96 0
v -256 -96 0
v -224 -96 0
v -192 -96 0
v -160 -96 0
v -128 -96 0
v -96 -96 0
v -64 -96 0
v -32 -96 0
v 0 -96 0
v -512 -128 0
v -544 -128 0
v -480 -128 0
v -448 -128 0
v -416 -128 0
v -384 -128 0
v -352 -128 0
v -320 -128 0
v -288 -128 0
v -256 -128 0
v -224 -128 0
v -192 -128 0
v -160 -128 0
v -128 -128 0
v -96 -128 0
v -64 -128 0
v -32 -128 0
v 0 -128 0
v -512 -160 0
v -544 -160 0
v -480 -160 0
v -448 -160 0
v -416 -160 0
v -384 -160 0
v -352 -160 0
v -320 -160 0
v -288 -160 0
v -256 -160 0
v -224 -160 0
v -192 -160 0
v -160 -160 0
v -128 -160 0
v -96 -160 0
v -64 -160 0
v -32 -160 0
v 0 -160 0
v -512 -192 0
v -544 -192 0
v -480 -192 0
v -448 -192 0
v -416 -192 0
v -384 -192 0
v -352 -192 0
v -320 -192 0
v -288 -192 0
v -256 -192 0
v -224 -192 0
v -192 -192 0
v -160 -192 0
v -128 -192 0
v -96 -192 0
v -64 -192 0
v -32 -192 0
v 0 -192 0
v -512 -224 0
v -544 -224 0
v -480 -224 0
v -448 -224 0
v -416 -224 0
v -384 -224 0
v -352 -224 0
v -320 -224 0
v -288 -224 0
v -256 -224 0
v -224 -224 0
v -192 -224 0
v -160 -224 0
v -128 -224 0
v -96 -224 0
v -64 -224 0
v -32 -224 0
v 0 -224 0
v -512 -256 0
v -544 -256 0
v -480 -256 0
v -448 -256 0
v -416 -256 0
v -384 -256 0
v -352 -256 0
v -320 -256 0
v -288 -256 0
v -256 -256 0
v -224 -256 0
v -192 -256 0
v -160 -256 0
v -128 -256 0
v -96 -256 0
v -64 -256 0
v -32 -256 0
v 0 -256 0
v -512 -288 0
v -544 -288 0
v -480 -288 0
v -448 -288 0
v -416 -288 0
v -384 -288 0
v -352 -288 0
v -320 -288 0
v -288 -288 0
v -256 -288 0
v -224 -288 0
v -192 -288 0
v -160 -288 0
v -128 -288 0
v -96 -288 0
v -64 -288 0
v -32 -288 0
v 0 -288 0
v -512 -320 0
v -544 -320 0
v -480 -320 0
v -448 -320 0
v -416 -320 0
v -384 -320 0
v -352 -320 0
v -320 -320 0
v -288 -320 0
v -256 -320 0
v -224 -320 0
v -192 -320 0
v -160 -320 0
v -128 -320 0
v -96 -320 0
v -64 -320 0
v -32 -320 0
v 0 -320 0
v -512 -352 0
v -544 -352 0
v -480 -352 0
v -448 -352 0
v -416 -352 0
v -384 -352 0
v -352 -352 0
v -320 -352 0
v -288 -352 0
v -256 -352 0
v -224 -352 0
v -192 -352 0
v -160 -352 0
v -128 -352 0
v -96 -352 0
v -64 -352 0
v -32 -352 0
v 0 -352 0
v -512 -384 0
v -544 -384 0
v -480 -384 0
v -448 -384 0
v -416 -384 0
v -384 -384 0
v -352 -384 0
v -320 -384 0
v -288 -384 0
v -256 -384 0
v -224 -384 0
v -192 -384 0
v -160 -384 0
v -128 -384 0
v -96 -384 0
v -64 -384 0
v -32 -384 0
v 0 -384 0
v -512 -416 0
v -544 -416 0
v -480 -416 0
v -448 -416 0
v -416 -416 0
v -384 -416 0
v -352 -416 0
v -320 -416 0
v -288 -416 0
v -256 -416 0
v -224 -416 0
v -192 -416 0
v -160 -416 0
v -128 -416 0
v -96 -416 0
v -64 -416 0
v -32 -416 0
v 0 -416 0
v -512 -448 0
v -544 -448 0
v -480 -448 0
v -448 -448 0
v -416 -448 0
v -384 -448 0
v -352 -448 0
v -320 -448 0
v -288 -448 0
v -256 -448 0
v -224 -448 0
v -192 -448 0
v -160 -448 0
v -128 -448 0
v -96 -448 0
v -64 -448 0
v -32 -448 0
v 0 -448 0
v -512 -480 0
v -544 -480 0
v -480 -480 0
v -448 -480 0
v -416 -480 0
v -384 -480 0
v -352 -480 0
v -320 -480 0
v -288 -480 0
v -256 -480 0
v -224 -480 0
v -192 -480 0
v -160 -480 0
v -128 -480 0
v -96 -480 0
v -64 -480 0
v -32 -480 0
v 0 -480 0
v -512 -512 0
v -544 -512 0
v -480 -512 0
v -448 -512 0
v -416 -512 0
v -384 -512 0
v -352 -512 0
v -320 -512 0
v -288 -512 0
v -256 -512 0
v -224 -512 0
v -192 -512 0
v -160 -512 0
v -128 -512 0
v -96 -512 0
v -64 -512 0
v -32 -512 0
v 0 -512 0
v -512 -544 0
v -544 -544 0
v -480 -544 0
v -448 -544 0
v -416 -544 0
v -384 -544 0
v -352 -544 0
v -320 -544 0
v -288 -544 0
v -256 -544 0
v -224 -544 0
v -192 -544 0
v -160 -544 0
v -128 -544 0
v -96 -544 0
v -64 -544 0
v -32 -544 0
v 0 -544 0

# Texture cooridinates (Count = 12)
vt 0.08514745 0.9582439
vt 0.1255125 0.9582439
vt 0.1255125 0.9986089
vt 0.08514745 0.9986089
vt 0.1270256 0.748853
vt 0.1673906 0.748853
vt 0.1673906 0.789218
vt 0.1270256 0.789218
vt 0.1270256 0.8326094
vt 0.1673906 0.8326094
vt 0.1673906 0.8729744
vt 0.1270256 0.8729744

# Normal
vn 0 0 -1

# Groups (Count = 1)

g mesh_0001
f 1/1/1 2/2/1 3/3/1 4/4/1
f 5/1/1 1/2/1 4/3/1 6/4/1
f 7/1/1 5/2/1 6/3/1 8/4/1
f 9/1/1 7/2/1 8/3/1 10/4/1
f 11/1/1 9/2/1 10/3/1 12/4/1
f 13/1/1 11/2/1 12/3/1 14/4/1
f 15/1/1 13/2/1 14/3/1 16/4/1
f 17/1/1 15/2/1 16/3/1 18/4/1
f 19/1/1 17/2/1 18/3/1 20/4/1
f 21/1/1 19/2/1 20/3/1 22/4/1
f 23/1/1 21/2/1 22/3/1 24/4/1
f 25/1/1 23/2/1 24/3/1 26/4/1
f 27/1/1 25/2/1 26/3/1 28/4/1
f 29/1/1 27/2/1 28/3/1 30/4/1
f 31/1/1 29/2/1 30/3/1 32/4/1
f 33/1/1 31/2/1 32/3/1 34/4/1
f 35/1/1 33/2/1 34/3/1 36/4/1
f 37/1/1 38/2/1 2/3/1 1/4/1
f 39/5/1 37/6/1 1/7/1 5/8/1
f 40/5/1 39/6/1 5/7/1 7/8/1
f 41/5/1 40/6/1 7/7/1 9/8/1
f 42/5/1 41/6/1 9/7/1 11/8/1
f 43/5/1 42/6/1 11/7/1 13/8/1
f 44/5/1 43/6/1 13/7/1 15/8/1
f 45/5/1 44/6/1 15/7/1 17/8/1
f 46/5/1 45/6/1 17/7/1 19/8/1
f 47/5/1 46/6/1 19/7/1 21/8/1
f 48/5/1 47/6/1 21/7/1 23/8/1
f 49/5/1 48/6/1 23/7/1 25/8/1
f 50/5/1 49/6/1 25/7/1 27/8/1
f 51/5/1 50/6/1 27/7/1 29/8/1
f 52/5/1 51/6/1 29/7/1 31/8/1
f 53/5/1 52/6/1 31/7/1 33/8/1
f 54/1/1 53/2/1 33/3/1 35/4/1
f 55/1/1 56/2/1 38/3/1 37/4/1
f 57/5/1 55/6/1 37/7/1 39/8/1
f 58/5/1 57/6/1 39/7/1 40/8/1
f 59/5/1 58/6/1 40/7/1 41/8/1
f 60/5/1 59/6/1 41/7/1 42/8/1
f 61/5/1 60/6/1 42/7/1 43/8/1
f 62/5/1 61/6/1 43/7/1 44/8/1
f 63/5/1 62/6/1 44/7/1 45/8/1
f 64/5/1 63/6/1 45/7/1 46/8/1
f 65/5/1 64/6/1 46/7/1 47/8/1
f 66/5/1 65/6/1 47/7/1 48/8/1
f 67/5/1 66/6/1 48/7/1 49/8/1
f 68/5/1 67/6/1 49/7/1 50/8/1
f 69/5/1 68/6/1 50/7/1 51/8/1
f 70/5/1 69/6/1 51/7/1 52/8/1
f 71/5/1 70/6/1 52/7/1 53/8/1
f 72/1/1 71/2/1 53/3/1 54/4/1
f 73/1/1 74/2/1 56/3/1 55/4/1
f 75/1/1 73/2/1 55/3/1 57/4/1
f 76/1/1 75/2/1 57/3/1 58/4/1
f 77/1/1 76/2/1 58/3/1 59/4/1
f 78/1/1 77/2/1 59/3/1 60/4/1
f 79/1/1 78/2/1 60/3/1 61/4/1
f 80/1/1 79/2/1 61/3/1 62/4/1
f 81/1/1 80/2/1 62/3/1 63/4/1
f 82/1/1 81/2/1 63/3/1 64/4/1
f 83/1/1 82/2/1 64/3/1 65/4/1
f 84/1/1 83/2/1 65/3/1 66/4/1
f 85/1/1 84/2/1 66/3/1 67/4/1
f 86/1/1 85/2/1 67/3/1 68/4/1
f 87/1/1 86/2/1 68/3/1 69/4/1
f 88/5/1 87/6/1 69/7/1 70/8/1
f 89/5/1 88/6/1 70/7/1 71/8/1
f 90/1/1 89/2/1 71/3/1 72/4/1
f 91/1/1 92/2/1 74/3/1 73/4/1
f 93/5/1 91/6/1 73/7/1 75/8/1
f 94/5/1 93/6/1 75/7/1 76/8/1
f 95/5/1 94/6/1 76/7/1 77/8/1
f 96/5/1 95/6/1 77/7/1 78/8/1
f 97/5/1 96/6/1 78/7/1 79/8/1
f 98/5/1 97/6/1 79/7/1 80/8/1
f 99/5/1 98/6/1 80/7/1 81/8/1
f 100/5/1 99/6/1 81/7/1 82/8/1
f 101/5/1 100/6/1 82/7/1 83/8/1
f 102/5/1 101/6/1 83/7/1 84/8/1
f 103/5/1 102/6/1 84/7/1 85/8/1
f 104/5/1 103/6/1 85/7/1 86/8/1
f 105/5/1 104/6/1 86/7/1 87/8/1
f 106/5/1 105/6/1 87/7/1 88/8/1
f 107/5/1 106/6/1 88/7/1 89/8/1
f 108/1/1 107/2/1 89/3/1 90/4/1
f 109/1/1 110/2/1 92/3/1 91/4/1
f 111/5/1 109/6/1 91/7/1 93/8/1
f 112/5/1 111/6/1 93/7/1 94/8/1
f 113/5/1 112/6/1 94/7/1 95/8/1
f 114/5/1 113/6/1 95/7/1 96/8/1
f 115/5/1 114/6/1 96/7/1 97/8/1
f 116/5/1 115/6/1 97/7/1 98/8/1
f 117/5/1 116/6/1 98/7/1 99/8/1
f 118/5/1 117/6/1 99/7/1 100/8/1
f 119/5/1 118/6/1 100/7/1 101/8/1
f 120/5/1 119/6/1 101/7/1 102/8/1
f 121/5/1 120/6/1 102/7/1 103/8/1
f 122/5/1 121/6/1 103/7/1 104/8/1
f 123/5/1 122/6/1 104/7/1 105/8/1
f 124/5/1 123/6/1 105/7/1 106/8/1
f 125/5/1 124/6/1 106/7/1 107/8/1
f 126/1/1 125/2/1 107/3/1 108/4/1
f 127/1/1 128/2/1 110/3/1 109/4/1
f 129/1/1 127/2/1 109/3/1 111/4/1
f 130/1/1 129/2/1 111/3/1 112/4/1
f 131/1/1 130/2/1 112/3/1 113/4/1
f 132/1/1 131/2/1 113/3/1 114/4/1
f 133/1/1 132/2/1 114/3/1 115/4/1
f 134/1/1 133/2/1 115/3/1 116/4/1
f 135/1/1 134/2/1 116/3/1 117/4/1
f 136/5/1 135/6/1 117/7/1 118/8/1
f 137/5/1 136/6/1 118/7/1 119/8/1
f 138/1/1 137/2/1 119/3/1 120/4/1
f 139/1/1 138/2/1 120/3/1 121/4/1
f 140/1/1 139/2/1 121/3/1 122/4/1
f 141/1/1 140/2/1 122/3/1 123/4/1
f 142/1/1 141/2/1 123/3/1 124/4/1
f 143/1/1 142/2/1 124/3/1 125/4/1
f 144/1/1 143/2/1 125/3/1 126/4/1
f 145/1/1 146/2/1 128/3/1 127/4/1
f 147/9/1 145/10/1 127/11/1 129/12/1
f 148/9/1 147/10/1 129/11/1 130/12/1
f 149/9/1 148/10/1 130/11/1 131/12/1
f 150/9/1 149/10/1 131/11/1 132/12/1
f 151/9/1 150/10/1 132/11/1 133/12/1
f 152/9/1 151/10/1 133/11/1 134/12/1
f 153/9/1 152/10/1 134/11/1 135/12/1
f 154/5/1 153/6/1 135/7/1 136/8/1
f 155/5/1 154/6/1 136/7/1 137/8/1
f 156/1/1 155/2/1 137/3/1 138/4/1
f 157/5/1 156/6/1 138/7/1 139/8/1
f 158/5/1 157/6/1 139/7/1 140/8/1
f 159/5/1 158/6/1 140/7/1 141/8/1
f 160/5/1 159/6/1 141/7/1 142/8/1
f 161/5/1 160/6/1 142/7/1 143/8/1
f 162/1/1 161/2/1 143/3/1 144/4/1
f 163/1/1 164/2/1 146/3/1 145/4/1
f 165/9/1 163/10/1 145/11/1 147/12/1
f 166/9/1 165/10/1 147/11/1 148/12/1
f 167/9/1 166/10/1 148/11/1 149/12/1
f 168/9/1 167/10/1 149/11/1 150/12/1
f 169/9/1 168/10/1 150/11/1 151/12/1
f 170/9/1 169/10/1 151/11/1 152/12/1
f 171/9/1 170/10/1 152/11/1 153/12/1
f 172/5/1 171/6/1 153/7/1 154/8/1
f 173/5/1 172/6/1 154/7/1 155/8/1
f 174/1/1 173/2/1 155/3/1 156/4/1
f 175/5/1 174/6/1 156/7/1 157/8/1
f 176/5/1 175/6/1 157/7/1 158/8/1
f 177/5/1 176/6/1 158/7/1 159/8/1
f 178/5/1 177/6/1 159/7/1 160/8/1
f 179/5/1 178/6/1 160/7/1 161/8/1
f 180/1/1 179/2/1 161/3/1 162/4/1
f 181/1/1 182/2/1 164/3/1 163/4/1
f 183/9/1 181/10/1 163/11/1 165/12/1
f 184/9/1 183/10/1 165/11/1 166/12/1
f 185/1/1 184/2/1 166/3/1 167/4/1
f 186/5/1 185/6/1 167/7/1 168/8/1
f 187/5/1 186/6/1 168/7/1 169/8/1
f 188/1/1 187/2/1 169/3/1 170/4/1
f 189/1/1 188/2/1 170/3/1 171/4/1
f 190/1/1 189/2/1 171/3/1 172/4/1
f 191/1/1 190/2/1 172/3/1 173/4/1
f 192/1/1 191/2/1 173/3/1 174/4/1
f 193/9/1 192/10/1 174/11/1 175/12/1
f 194/9/1 193/10/1 175/11/1 176/12/1
f 195/1/1 194/2/1 176/3/1 177/4/1
f 196/5/1 195/6/1 177/7/1 178/8/1
f 197/5/1 196/6/1 178/7/1 179/8/1
f 198/1/1 197/2/1 179/3/1 180/4/1
f 199/1/1 200/2/1 182/3/1 181/4/1
f 201/9/1 199/10/1 181/11/1 183/12/1
f 202/9/1 201/10/1 183/11/1 184/12/1
f 203/1/1 202/2/1 184/3/1 185/4/1
f 204/9/1 203/10/1 185/11/1 186/12/1
f 205/9/1 204/10/1 186/11/1 187/12/1
f 206/1/1 205/2/1 187/3/1 188/4/1
f 207/1/1 206/2/1 188/3/1 189/4/1
f 208/1/1 207/2/1 189/3/1 190/4/1
f 209/1/1 208/2/1 190/3/1 191/4/1
f 210/1/1 209/2/1 191/3/1 192/4/1
f 211/9/1 210/10/1 192/11/1 193/12/1
f 212/9/1 211/10/1 193/11/1 194/12/1
f 213/1/1 212/2/1 194/3/1 195/4/1
f 214/5/1 213/6/1 195/7/1 196/8/1
f 215/5/1 214/6/1 196/7/1 197/8/1
f 216/1/1 215/2/1 197/3/1 198/4/1
f 217/1/1 218/2/1 200/3/1 199/4/1
f 219/9/1 217/10/1 199/11/1 201/12/1
f 220/9/1 219/10/1 201/11/1 202/12/1
f 221/1/1 220/2/1 202/3/1 203/4/1
f 222/9/1 221/10/1 203/11/1 204/12/1
f 223/9/1 222/10/1 204/11/1 205/12/1
f 224/9/1 223/10/1 205/11/1 206/12/1
f 225/9/1 224/10/1 206/11/1 207/12/1
f 226/9/1 225/10/1 207/11/1 208/12/1
f 227/9/1 226/10/1 208/11/1 209/12/1
f 228/9/1 227/10/1 209/11/1 210/12/1
f 229/9/1 228/10/1 210/11/1 211/12/1
f 230/9/1 229/10/1 211/11/1 212/12/1
f 231/1/1 230/2/1 212/3/1 213/4/1
f 232/5/1 231/6/1 213/7/1 214/8/1
f 233/5/1 232/6/1 214/7/1 215/8/1
f 234/1/1 233/2/1 215/3/1 216/4/1
f 235/1/1 236/2/1 218/3/1 217/4/1
f 237/9/1 235/10/1 217/11/1 219/12/1
f 238/9/1 237/10/1 219/11/1 220/12/1
f 239/1/1 238/2/1 220/3/1 221/4/1
f 240/9/1 239/10/1 221/11/1 222/12/1
f 241/9/1 240/10/1 222/11/1 223/12/1
f 242/9/1 241/10/1 223/11/1 224/12/1
f 243/9/1 242/10/1 224/11/1 225/12/1
f 244/9/1 243/10/1 225/11/1 226/12/1
f 245/9/1 244/10/1 226/11/1 227/12/1
f 246/9/1 245/10/1 227/11/1 228/12/1
f 247/9/1 246/10/1 228/11/1 229/12/1
f 248/9/1 247/10/1 229/11/1 230/12/1
f 249/1/1 248/2/1 230/3/1 231/4/1
f 250/5/1 249/6/1 231/7/1 232/8/1
f 251/5/1 250/6/1 232/7/1 233/8/1
f 252/1/1 251/2/1 233/3/1 234/4/1
f 253/1/1 254/2/1 236/3/1 235/4/1
f 255/5/1 253/6/1 235/7/1 237/8/1
f 256/5/1 255/6/1 237/7/1 238/8/1
f 257/1/1 256/2/1 238/3/1 239/4/1
f 258/1/1 257/2/1 239/3/1 240/4/1
f 259/1/1 258/2/1 240/3/1 241/4/1
f 260/1/1 259/2/1 241/3/1 242/4/1
f 261/1/1 260/2/1 242/3/1 243/4/1
f 262/1/1 261/2/1 243/3/1 244/4/1
f 263/1/1 262/2/1 244/3/1 245/4/1
f 264/1/1 263/2/1 245/3/1 246/4/1
f 265/1/1 264/2/1 246/3/1 247/4/1
f 266/1/1 265/2/1 247/3/1 248/4/1
f 267/1/1 266/2/1 248/3/1 249/4/1
f 268/5/1 267/6/1 249/7/1 250/8/1
f 269/5/1 268/6/1 250/7/1 251/8/1
f 270/1/1 269/2/1 251/3/1 252/4/1
f 271/1/1 272/2/1 254/3/1 253/4/1
f 273/5/1 271/6/1 253/7/1 255/8/1
f 274/5/1 273/6/1 255/7/1 256/8/1
f 275/5/1 274/6/1 256/7/1 257/8/1
f 276/5/1 275/6/1 257/7/1 258/8/1
f 277/5/1 276/6/1 258/7/1 259/8/1
f 278/5/1 277/6/1 259/7/1 260/8/1
f 279/5/1 278/6/1 260/7/1 261/8/1
f 280/5/1 279/6/1 261/7/1 262/8/1
f 281/5/1 280/6/1 262/7/1 263/8/1
f 282/1/1 281/2/1 263/3/1 264/4/1
f 283/5/1 282/6/1 264/7/1 265/8/1
f 284/5/1 283/6/1 265/7/1 266/8/1
f 285/5/1 284/6/1 266/7/1 267/8/1
f 286/5/1 285/6/1 267/7/1 268/8/1
f 287/5/1 286/6/1 268/7/1 269/8/1
f 288/1/1 287/2/1 269/3/1 270/4/1
f 289/1/1 290/2/1 272/3/1 271/4/1
f 291/5/1 289/6/1 271/7/1 273/8/1
f 292/5/1 291/6/1 273/7/1 274/8/1
f 293/5/1 292/6/1 274/7/1 275/8/1
f 294/5/1 293/6/1 275/7/1 276/8/1
f 295/5/1 294/6/1 276/7/1 277/8/1
f 296/5/1 295/6/1 277/7/1 278/8/1
f 297/5/1 296/6/1 278/7/1 279/8/1
f 298/5/1 297/6/1 279/7/1 280/8/1
f 299/5/1 298/6/1 280/7/1 281/8/1
f 300/1/1 299/2/1 281/3/1 282/4/1
f 301/5/1 300/6/1 282/7/1 283/8/1
f 302/5/1 301/6/1 283/7/1 284/8/1
f 303/5/1 302/6/1 284/7/1 285/8/1
f 304/5/1 303/6/1 285/7/1 286/8/1
f 305/5/1 304/6/1 286/7/1 287/8/1
f 306/1/1 305/2/1 287/3/1 288/4/1
f 307/1/1 308/2/1 290/3/1 289/4/1
f 309/1/1 307/2/1 289/3/1 291/4/1
f 310/1/1 309/2/1 291/3/1 292/4/1
f 311/1/1 310/2/1 292/3/1 293/4/1
f 312/1/1 311/2/1 293/3/1 294/4/1
f 313/1/1 312/2/1 294/3/1 295/4/1
f 314/1/1 313/2/1 295/3/1 296/4/1
f 315/1/1 314/2/1 296/3/1 297/4/1
f 316/1/1 315/2/1 297/3/1 298/4/1
f 317/1/1 316/2/1 298/3/1 299/4/1
f 318/1/1 317/2/1 299/3/1 300/4/1
f 319/1/1 318/2/1 300/3/1 301/4/1
f 320/1/1 319/2/1 301/3/1 302/4/1
f 321/1/1 320/2/1 302/3/1 303/4/1
f 322/1/1 321/2/1 303/3/1 304/4/1
f 323/1/1 322/2/1 304/3/1 305/4/1
f 324/1/1 323/2/1 305/3/1 306/4/1

