# Wavefront OBJ file automatically generated by Tiled2Unity

# Vertices (Count = 324)
v -512 -32 0
v -544 -32 0
v -544 0 0
v -512 0 0
v -480 -32 0
v -480 0 0
v -448 -32 0
v -448 0 0
v -416 -32 0
v -416 0 0
v -384 -32 0
v -384 0 0
v -352 -32 0
v -352 0 0
v -320 -32 0
v -320 0 0
v -288 -32 0
v -288 0 0
v -256 -32 0
v -256 0 0
v -224 -32 0
v -224 0 0
v -192 -32 0
v -192 0 0
v -160 -32 0
v -160 0 0
v -128 -32 0
v -128 0 0
v -96 -32 0
v -96 0 0
v -64 -32 0
v -64 0 0
v -32 -32 0
v -32 0 0
v 0 -32 0
v 0 0 0
v -512 -64 0
v -544 -64 0
v 0 -64 0
v -32 -64 0
v -512 -96 0
v -544 -96 0
v 0 -96 0
v -32 -96 0
v -512 -128 0
v -544 -128 0
v -480 -128 0
v -480 -96 0
v -448 -128 0
v -448 -96 0
v -416 -128 0
v -416 -96 0
v -384 -128 0
v -384 -96 0
v -352 -128 0
v -352 -96 0
v -320 -128 0
v -320 -96 0
v -288 -128 0
v -288 -96 0
v -256 -128 0
v -256 -96 0
v -224 -128 0
v -224 -96 0
v -192 -128 0
v -192 -96 0
v -160 -128 0
v -160 -96 0
v -128 -128 0
v -128 -96 0
v -96 -128 0
v -96 -96 0
v 0 -128 0
v -32 -128 0
v -512 -160 0
v -544 -160 0
v 0 -160 0
v -32 -160 0
v -512 -192 0
v -544 -192 0
v 0 -192 0
v -32 -192 0
v -512 -224 0
v -544 -224 0
v -480 -224 0
v -480 -192 0
v -448 -224 0
v -448 -192 0
v -416 -224 0
v -416 -192 0
v -384 -224 0
v -384 -192 0
v -352 -224 0
v -352 -192 0
v -320 -224 0
v -320 -192 0
v -288 -224 0
v -288 -192 0
v -192 -224 0
v -224 -224 0
v -224 -192 0
v -192 -192 0
v -160 -224 0
v -160 -192 0
v -128 -224 0
v -128 -192 0
v -96 -224 0
v -96 -192 0
v -64 -224 0
v -64 -192 0
v -32 -224 0
v 0 -224 0
v -512 -256 0
v -544 -256 0
v -192 -256 0
v -224 -256 0
v 0 -256 0
v -32 -256 0
v -512 -288 0
v -544 -288 0
v -192 -288 0
v -224 -288 0
v 0 -288 0
v -32 -288 0
v -512 -320 0
v -544 -320 0
v -416 -320 0
v -448 -320 0
v -448 -288 0
v -416 -288 0
v -320 -320 0
v -352 -320 0
v -352 -288 0
v -320 -288 0
v -288 -320 0
v -288 -288 0
v -256 -320 0
v -256 -288 0
v -224 -320 0
v -192 -320 0
v -96 -320 0
v -128 -320 0
v -128 -288 0
v -96 -288 0
v 0 -320 0
v -32 -320 0
v -512 -352 0
v -544 -352 0
v -416 -352 0
v -448 -352 0
v -320 -352 0
v -352 -352 0
v -288 -352 0
v -256 -352 0
v -224 -352 0
v -192 -352 0
v -96 -352 0
v -128 -352 0
v 0 -352 0
v -32 -352 0
v -512 -384 0
v -544 -384 0
v -416 -384 0
v -448 -384 0
v -96 -384 0
v -128 -384 0
v 0 -384 0
v -32 -384 0
v -512 -416 0
v -544 -416 0
v -416 -416 0
v -448 -416 0
v -96 -416 0
v -128 -416 0
v 0 -416 0
v -32 -416 0
v -512 -448 0
v -544 -448 0
v -416 -448 0
v -448 -448 0
v -384 -448 0
v -384 -416 0
v -352 -448 0
v -352 -416 0
v -320 -448 0
v -320 -416 0
v -288 -448 0
v -288 -416 0
v -256 -448 0
v -256 -416 0
v -224 -448 0
v -224 -416 0
v -192 -448 0
v -192 -416 0
v -160 -448 0
v -160 -416 0
v -128 -448 0
v -96 -448 0
v 0 -448 0
v -32 -448 0
v -512 -480 0
v -544 -480 0
v -192 -480 0
v -224 -480 0
v 0 -480 0
v -32 -480 0
v -512 -512 0
v -544 -512 0
v -192 -512 0
v -224 -512 0
v 0 -512 0
v -32 -512 0
v -512 -544 0
v -544 -544 0
v -480 -544 0
v -480 -512 0
v -448 -544 0
v -448 -512 0
v -416 -544 0
v -416 -512 0
v -384 -544 0
v -384 -512 0
v -352 -544 0
v -352 -512 0
v -320 -544 0
v -320 -512 0
v -288 -544 0
v -288 -512 0
v -256 -544 0
v -256 -512 0
v -224 -544 0
v -192 -544 0
v -160 -544 0
v -160 -512 0
v -128 -544 0
v -128 -512 0
v -96 -544 0
v -96 -512 0
v -64 -544 0
v -64 -512 0
v -32 -544 0
v 0 -544 0
v -480 -64 0
v -448 -64 0
v -416 -64 0
v -384 -64 0
v -352 -64 0
v -320 -64 0
v -288 -64 0
v -256 -64 0
v -224 -64 0
v -192 -64 0
v -160 -64 0
v -128 -64 0
v -96 -64 0
v -64 -64 0
v -64 -96 0
v -64 -128 0
v -480 -160 0
v -448 -160 0
v -416 -160 0
v -384 -160 0
v -352 -160 0
v -320 -160 0
v -288 -160 0
v -256 -160 0
v -224 -160 0
v -192 -160 0
v -160 -160 0
v -128 -160 0
v -96 -160 0
v -64 -160 0
v -256 -192 0
v -256 -224 0
v -480 -256 0
v -448 -256 0
v -416 -256 0
v -384 -256 0
v -352 -256 0
v -320 -256 0
v -288 -256 0
v -256 -256 0
v -160 -256 0
v -128 -256 0
v -96 -256 0
v -64 -256 0
v -480 -288 0
v -384 -288 0
v -160 -288 0
v -64 -288 0
v -480 -320 0
v -384 -320 0
v -160 -320 0
v -64 -320 0
v -480 -352 0
v -384 -352 0
v -160 -352 0
v -64 -352 0
v -480 -384 0
v -384 -384 0
v -352 -384 0
v -320 -384 0
v -288 -384 0
v -256 -384 0
v -224 -384 0
v -192 -384 0
v -160 -384 0
v -64 -384 0
v -480 -416 0
v -64 -416 0
v -480 -448 0
v -64 -448 0
v -480 -480 0
v -448 -480 0
v -416 -480 0
v -384 -480 0
v -352 -480 0
v -320 -480 0
v -288 -480 0
v -256 -480 0
v -160 -480 0
v -128 -480 0
v -96 -480 0
v -64 -480 0

# Texture cooridinates (Count = 8)
vt 0.08514745 0.9582439
vt 0.1255125 0.9582439
vt 0.1255125 0.9986089
vt 0.08514745 0.9986089
vt 0.0001220703 0.0001220703
vt 0.9998779 0.0001220703
vt 0.9998779 0.9998779
vt 0.0001220703 0.9998779

# Normal
vn 0 0 -1

# Groups (Count = 1)

g mesh_0001
f 1/1/1 2/2/1 3/3/1 4/4/1
f 5/1/1 1/2/1 4/3/1 6/4/1
f 7/1/1 5/2/1 6/3/1 8/4/1
f 9/1/1 7/2/1 8/3/1 10/4/1
f 11/1/1 9/2/1 10/3/1 12/4/1
f 13/1/1 11/2/1 12/3/1 14/4/1
f 15/1/1 13/2/1 14/3/1 16/4/1
f 17/1/1 15/2/1 16/3/1 18/4/1
f 19/1/1 17/2/1 18/3/1 20/4/1
f 21/1/1 19/2/1 20/3/1 22/4/1
f 23/1/1 21/2/1 22/3/1 24/4/1
f 25/1/1 23/2/1 24/3/1 26/4/1
f 27/1/1 25/2/1 26/3/1 28/4/1
f 29/1/1 27/2/1 28/3/1 30/4/1
f 31/1/1 29/2/1 30/3/1 32/4/1
f 33/1/1 31/2/1 32/3/1 34/4/1
f 35/1/1 33/2/1 34/3/1 36/4/1
f 37/1/1 38/2/1 2/3/1 1/4/1
f 39/1/1 40/2/1 33/3/1 35/4/1
f 41/1/1 42/2/1 38/3/1 37/4/1
f 43/1/1 44/2/1 40/3/1 39/4/1
f 45/1/1 46/2/1 42/3/1 41/4/1
f 47/1/1 45/2/1 41/3/1 48/4/1
f 49/1/1 47/2/1 48/3/1 50/4/1
f 51/1/1 49/2/1 50/3/1 52/4/1
f 53/1/1 51/2/1 52/3/1 54/4/1
f 55/1/1 53/2/1 54/3/1 56/4/1
f 57/1/1 55/2/1 56/3/1 58/4/1
f 59/1/1 57/2/1 58/3/1 60/4/1
f 61/1/1 59/2/1 60/3/1 62/4/1
f 63/1/1 61/2/1 62/3/1 64/4/1
f 65/1/1 63/2/1 64/3/1 66/4/1
f 67/1/1 65/2/1 66/3/1 68/4/1
f 69/1/1 67/2/1 68/3/1 70/4/1
f 71/1/1 69/2/1 70/3/1 72/4/1
f 73/1/1 74/2/1 44/3/1 43/4/1
f 75/1/1 76/2/1 46/3/1 45/4/1
f 77/1/1 78/2/1 74/3/1 73/4/1
f 79/1/1 80/2/1 76/3/1 75/4/1
f 81/1/1 82/2/1 78/3/1 77/4/1
f 83/1/1 84/2/1 80/3/1 79/4/1
f 85/1/1 83/2/1 79/3/1 86/4/1
f 87/1/1 85/2/1 86/3/1 88/4/1
f 89/1/1 87/2/1 88/3/1 90/4/1
f 91/1/1 89/2/1 90/3/1 92/4/1
f 93/1/1 91/2/1 92/3/1 94/4/1
f 95/1/1 93/2/1 94/3/1 96/4/1
f 97/1/1 95/2/1 96/3/1 98/4/1
f 99/1/1 100/2/1 101/3/1 102/4/1
f 103/1/1 99/2/1 102/3/1 104/4/1
f 105/1/1 103/2/1 104/3/1 106/4/1
f 107/1/1 105/2/1 106/3/1 108/4/1
f 109/1/1 107/2/1 108/3/1 110/4/1
f 111/1/1 109/2/1 110/3/1 82/4/1
f 112/1/1 111/2/1 82/3/1 81/4/1
f 113/1/1 114/2/1 84/3/1 83/4/1
f 115/1/1 116/2/1 100/3/1 99/4/1
f 117/1/1 118/2/1 111/3/1 112/4/1
f 119/1/1 120/2/1 114/3/1 113/4/1
f 121/1/1 122/2/1 116/3/1 115/4/1
f 123/1/1 124/2/1 118/3/1 117/4/1
f 125/1/1 126/2/1 120/3/1 119/4/1
f 127/1/1 128/2/1 129/3/1 130/4/1
f 131/1/1 132/2/1 133/3/1 134/4/1
f 135/1/1 131/2/1 134/3/1 136/4/1
f 137/1/1 135/2/1 136/3/1 138/4/1
f 139/1/1 137/2/1 138/3/1 122/4/1
f 140/1/1 139/2/1 122/3/1 121/4/1
f 141/1/1 142/2/1 143/3/1 144/4/1
f 145/1/1 146/2/1 124/3/1 123/4/1
f 147/1/1 148/2/1 126/3/1 125/4/1
f 149/1/1 150/2/1 128/3/1 127/4/1
f 151/1/1 152/2/1 132/3/1 131/4/1
f 153/1/1 151/2/1 131/3/1 135/4/1
f 154/1/1 153/2/1 135/3/1 137/4/1
f 155/1/1 154/2/1 137/3/1 139/4/1
f 156/1/1 155/2/1 139/3/1 140/4/1
f 157/1/1 158/2/1 142/3/1 141/4/1
f 159/1/1 160/2/1 146/3/1 145/4/1
f 161/1/1 162/2/1 148/3/1 147/4/1
f 163/1/1 164/2/1 150/3/1 149/4/1
f 165/1/1 166/2/1 158/3/1 157/4/1
f 167/1/1 168/2/1 160/3/1 159/4/1
f 169/1/1 170/2/1 162/3/1 161/4/1
f 171/1/1 172/2/1 164/3/1 163/4/1
f 173/1/1 174/2/1 166/3/1 165/4/1
f 175/1/1 176/2/1 168/3/1 167/4/1
f 177/1/1 178/2/1 170/3/1 169/4/1
f 179/1/1 180/2/1 172/3/1 171/4/1
f 181/1/1 179/2/1 171/3/1 182/4/1
f 183/1/1 181/2/1 182/3/1 184/4/1
f 185/1/1 183/2/1 184/3/1 186/4/1
f 187/1/1 185/2/1 186/3/1 188/4/1
f 189/1/1 187/2/1 188/3/1 190/4/1
f 191/1/1 189/2/1 190/3/1 192/4/1
f 193/1/1 191/2/1 192/3/1 194/4/1
f 195/1/1 193/2/1 194/3/1 196/4/1
f 197/1/1 195/2/1 196/3/1 174/4/1
f 198/1/1 197/2/1 174/3/1 173/4/1
f 199/1/1 200/2/1 176/3/1 175/4/1
f 201/1/1 202/2/1 178/3/1 177/4/1
f 203/1/1 204/2/1 191/3/1 193/4/1
f 205/1/1 206/2/1 200/3/1 199/4/1
f 207/1/1 208/2/1 202/3/1 201/4/1
f 209/1/1 210/2/1 204/3/1 203/4/1
f 211/1/1 212/2/1 206/3/1 205/4/1
f 213/1/1 214/2/1 208/3/1 207/4/1
f 215/1/1 213/2/1 207/3/1 216/4/1
f 217/1/1 215/2/1 216/3/1 218/4/1
f 219/1/1 217/2/1 218/3/1 220/4/1
f 221/1/1 219/2/1 220/3/1 222/4/1
f 223/1/1 221/2/1 222/3/1 224/4/1
f 225/1/1 223/2/1 224/3/1 226/4/1
f 227/1/1 225/2/1 226/3/1 228/4/1
f 229/1/1 227/2/1 228/3/1 230/4/1
f 231/1/1 229/2/1 230/3/1 210/4/1
f 232/1/1 231/2/1 210/3/1 209/4/1
f 233/1/1 232/2/1 209/3/1 234/4/1
f 235/1/1 233/2/1 234/3/1 236/4/1
f 237/1/1 235/2/1 236/3/1 238/4/1
f 239/1/1 237/2/1 238/3/1 240/4/1
f 241/1/1 239/2/1 240/3/1 212/4/1
f 242/1/1 241/2/1 212/3/1 211/4/1

g mesh_0002
f 243/5/1 37/6/1 1/7/1 5/8/1
f 244/5/1 243/6/1 5/7/1 7/8/1
f 245/5/1 244/6/1 7/7/1 9/8/1
f 246/5/1 245/6/1 9/7/1 11/8/1
f 247/5/1 246/6/1 11/7/1 13/8/1
f 248/5/1 247/6/1 13/7/1 15/8/1
f 249/5/1 248/6/1 15/7/1 17/8/1
f 250/5/1 249/6/1 17/7/1 19/8/1
f 251/5/1 250/6/1 19/7/1 21/8/1
f 252/5/1 251/6/1 21/7/1 23/8/1
f 253/5/1 252/6/1 23/7/1 25/8/1
f 254/5/1 253/6/1 25/7/1 27/8/1
f 255/5/1 254/6/1 27/7/1 29/8/1
f 256/5/1 255/6/1 29/7/1 31/8/1
f 40/5/1 256/6/1 31/7/1 33/8/1
f 48/5/1 41/6/1 37/7/1 243/8/1
f 50/5/1 48/6/1 243/7/1 244/8/1
f 52/5/1 50/6/1 244/7/1 245/8/1
f 54/5/1 52/6/1 245/7/1 246/8/1
f 56/5/1 54/6/1 246/7/1 247/8/1
f 58/5/1 56/6/1 247/7/1 248/8/1
f 60/5/1 58/6/1 248/7/1 249/8/1
f 62/5/1 60/6/1 249/7/1 250/8/1
f 64/5/1 62/6/1 250/7/1 251/8/1
f 66/5/1 64/6/1 251/7/1 252/8/1
f 68/5/1 66/6/1 252/7/1 253/8/1
f 70/5/1 68/6/1 253/7/1 254/8/1
f 72/5/1 70/6/1 254/7/1 255/8/1
f 257/5/1 72/6/1 255/7/1 256/8/1
f 44/5/1 257/6/1 256/7/1 40/8/1
f 258/5/1 71/6/1 72/7/1 257/8/1
f 74/5/1 258/6/1 257/7/1 44/8/1
f 259/5/1 75/6/1 45/7/1 47/8/1
f 260/5/1 259/6/1 47/7/1 49/8/1
f 261/5/1 260/6/1 49/7/1 51/8/1
f 262/5/1 261/6/1 51/7/1 53/8/1
f 263/5/1 262/6/1 53/7/1 55/8/1
f 264/5/1 263/6/1 55/7/1 57/8/1
f 265/5/1 264/6/1 57/7/1 59/8/1
f 266/5/1 265/6/1 59/7/1 61/8/1
f 267/5/1 266/6/1 61/7/1 63/8/1
f 268/5/1 267/6/1 63/7/1 65/8/1
f 269/5/1 268/6/1 65/7/1 67/8/1
f 270/5/1 269/6/1 67/7/1 69/8/1
f 271/5/1 270/6/1 69/7/1 71/8/1
f 272/5/1 271/6/1 71/7/1 258/8/1
f 78/5/1 272/6/1 258/7/1 74/8/1
f 86/5/1 79/6/1 75/7/1 259/8/1
f 88/5/1 86/6/1 259/7/1 260/8/1
f 90/5/1 88/6/1 260/7/1 261/8/1
f 92/5/1 90/6/1 261/7/1 262/8/1
f 94/5/1 92/6/1 262/7/1 263/8/1
f 96/5/1 94/6/1 263/7/1 264/8/1
f 98/5/1 96/6/1 264/7/1 265/8/1
f 273/5/1 98/6/1 265/7/1 266/8/1
f 101/5/1 273/6/1 266/7/1 267/8/1
f 102/5/1 101/6/1 267/7/1 268/8/1
f 104/5/1 102/6/1 268/7/1 269/8/1
f 106/5/1 104/6/1 269/7/1 270/8/1
f 108/5/1 106/6/1 270/7/1 271/8/1
f 110/5/1 108/6/1 271/7/1 272/8/1
f 82/5/1 110/6/1 272/7/1 78/8/1
f 274/5/1 97/6/1 98/7/1 273/8/1
f 100/5/1 274/6/1 273/7/1 101/8/1
f 275/5/1 113/6/1 83/7/1 85/8/1
f 276/5/1 275/6/1 85/7/1 87/8/1
f 277/5/1 276/6/1 87/7/1 89/8/1
f 278/5/1 277/6/1 89/7/1 91/8/1
f 279/5/1 278/6/1 91/7/1 93/8/1
f 280/5/1 279/6/1 93/7/1 95/8/1
f 281/5/1 280/6/1 95/7/1 97/8/1
f 282/5/1 281/6/1 97/7/1 274/8/1
f 116/5/1 282/6/1 274/7/1 100/8/1
f 283/5/1 115/6/1 99/7/1 103/8/1
f 284/5/1 283/6/1 103/7/1 105/8/1
f 285/5/1 284/6/1 105/7/1 107/8/1
f 286/5/1 285/6/1 107/7/1 109/8/1
f 118/5/1 286/6/1 109/7/1 111/8/1
f 287/5/1 119/6/1 113/7/1 275/8/1
f 129/5/1 287/6/1 275/7/1 276/8/1
f 130/5/1 129/6/1 276/7/1 277/8/1
f 288/5/1 130/6/1 277/7/1 278/8/1
f 133/5/1 288/6/1 278/7/1 279/8/1
f 134/5/1 133/6/1 279/7/1 280/8/1
f 136/5/1 134/6/1 280/7/1 281/8/1
f 138/5/1 136/6/1 281/7/1 282/8/1
f 122/5/1 138/6/1 282/7/1 116/8/1
f 289/5/1 121/6/1 115/7/1 283/8/1
f 143/5/1 289/6/1 283/7/1 284/8/1
f 144/5/1 143/6/1 284/7/1 285/8/1
f 290/5/1 144/6/1 285/7/1 286/8/1
f 124/5/1 290/6/1 286/7/1 118/8/1
f 291/5/1 125/6/1 119/7/1 287/8/1
f 128/5/1 291/6/1 287/7/1 129/8/1
f 292/5/1 127/6/1 130/7/1 288/8/1
f 132/5/1 292/6/1 288/7/1 133/8/1
f 293/5/1 140/6/1 121/7/1 289/8/1
f 142/5/1 293/6/1 289/7/1 143/8/1
f 294/5/1 141/6/1 144/7/1 290/8/1
f 146/5/1 294/6/1 290/7/1 124/8/1
f 295/5/1 147/6/1 125/7/1 291/8/1
f 150/5/1 295/6/1 291/7/1 128/8/1
f 296/5/1 149/6/1 127/7/1 292/8/1
f 152/5/1 296/6/1 292/7/1 132/8/1
f 297/5/1 156/6/1 140/7/1 293/8/1
f 158/5/1 297/6/1 293/7/1 142/8/1
f 298/5/1 157/6/1 141/7/1 294/8/1
f 160/5/1 298/6/1 294/7/1 146/8/1
f 299/5/1 161/6/1 147/7/1 295/8/1
f 164/5/1 299/6/1 295/7/1 150/8/1
f 300/5/1 163/6/1 149/7/1 296/8/1
f 301/5/1 300/6/1 296/7/1 152/8/1
f 302/5/1 301/6/1 152/7/1 151/8/1
f 303/5/1 302/6/1 151/7/1 153/8/1
f 304/5/1 303/6/1 153/7/1 154/8/1
f 305/5/1 304/6/1 154/7/1 155/8/1
f 306/5/1 305/6/1 155/7/1 156/8/1
f 307/5/1 306/6/1 156/7/1 297/8/1
f 166/5/1 307/6/1 297/7/1 158/8/1
f 308/5/1 165/6/1 157/7/1 298/8/1
f 168/5/1 308/6/1 298/7/1 160/8/1
f 309/5/1 169/6/1 161/7/1 299/8/1
f 172/5/1 309/6/1 299/7/1 164/8/1
f 182/5/1 171/6/1 163/7/1 300/8/1
f 184/5/1 182/6/1 300/7/1 301/8/1
f 186/5/1 184/6/1 301/7/1 302/8/1
f 188/5/1 186/6/1 302/7/1 303/8/1
f 190/5/1 188/6/1 303/7/1 304/8/1
f 192/5/1 190/6/1 304/7/1 305/8/1
f 194/5/1 192/6/1 305/7/1 306/8/1
f 196/5/1 194/6/1 306/7/1 307/8/1
f 174/5/1 196/6/1 307/7/1 166/8/1
f 310/5/1 173/6/1 165/7/1 308/8/1
f 176/5/1 310/6/1 308/7/1 168/8/1
f 311/5/1 177/6/1 169/7/1 309/8/1
f 180/5/1 311/6/1 309/7/1 172/8/1
f 312/5/1 198/6/1 173/7/1 310/8/1
f 200/5/1 312/6/1 310/7/1 176/8/1
f 313/5/1 201/6/1 177/7/1 311/8/1
f 314/5/1 313/6/1 311/7/1 180/8/1
f 315/5/1 314/6/1 180/7/1 179/8/1
f 316/5/1 315/6/1 179/7/1 181/8/1
f 317/5/1 316/6/1 181/7/1 183/8/1
f 318/5/1 317/6/1 183/7/1 185/8/1
f 319/5/1 318/6/1 185/7/1 187/8/1
f 320/5/1 319/6/1 187/7/1 189/8/1
f 204/5/1 320/6/1 189/7/1 191/8/1
f 321/5/1 203/6/1 193/7/1 195/8/1
f 322/5/1 321/6/1 195/7/1 197/8/1
f 323/5/1 322/6/1 197/7/1 198/8/1
f 324/5/1 323/6/1 198/7/1 312/8/1
f 206/5/1 324/6/1 312/7/1 200/8/1
f 216/5/1 207/6/1 201/7/1 313/8/1
f 218/5/1 216/6/1 313/7/1 314/8/1
f 220/5/1 218/6/1 314/7/1 315/8/1
f 222/5/1 220/6/1 315/7/1 316/8/1
f 224/5/1 222/6/1 316/7/1 317/8/1
f 226/5/1 224/6/1 317/7/1 318/8/1
f 228/5/1 226/6/1 318/7/1 319/8/1
f 230/5/1 228/6/1 319/7/1 320/8/1
f 210/5/1 230/6/1 320/7/1 204/8/1
f 234/5/1 209/6/1 203/7/1 321/8/1
f 236/5/1 234/6/1 321/7/1 322/8/1
f 238/5/1 236/6/1 322/7/1 323/8/1
f 240/5/1 238/6/1 323/7/1 324/8/1
f 212/5/1 240/6/1 324/7/1 206/8/1

